<?xml version="1.0" encoding="iso-8859-1"?>
<!-- Generator: Adobe Illustrator 19.1.0, SVG Export Plug-In . SVG Version: 6.00 Build 0)  -->
<svg version="1.1" id="Capa_1" xmlns="http://www.w3.org/2000/svg" xmlns:xlink="http://www.w3.org/1999/xlink" x="0px" y="0px"
	 viewBox="0 0 65 65" style="enable-background:new 0 0 65 65;" xml:space="preserve">
<g>
	<g id="group-29svg">
		<path id="path-1_20_" style="fill:#FF917B;" d="M65,53.015c0,4.422-3.582,8.007-8,8.007H15c-4.418,0-8-3.585-8-8.007V16.987
			c0-4.422,3.582-8.006,8-8.006h42c4.418,0,8,3.584,8,8.006V53.015z"/>
		<path id="path-2_20_" style="fill:#EDC951;" d="M65,21.991v-5.727c0-4.253-4.028-7.283-8.278-7.283H14.401
			c-4.25,0-7.401,3.03-7.401,7.283v5.727H65z"/>
		<path id="path-3_20_" d="M51.5,59.02h-42c-5.238,0-9.5-4.265-9.5-9.507V13.485c0-5.243,4.262-9.508,9.5-9.508h42
			c5.238,0,9.5,4.265,9.5,9.508v36.028C61,54.755,56.738,59.02,51.5,59.02z M9.5,6.979c-3.584,0-6.5,2.919-6.5,6.506v36.028
			c0,3.586,2.916,6.505,6.5,6.505h42c3.584,0,6.5-2.919,6.5-6.505V13.485c0-3.587-2.916-6.506-6.5-6.506H9.5z"/>
		<path id="path-4_20_" d="M59.5,20.99h-58c-0.828,0-1.5-0.672-1.5-1.501v-6.113c0-5.183,4.087-9.399,9.111-9.399h42.321
			c5.097,0,9.568,4.392,9.568,9.399v6.113C61,20.319,60.328,20.99,59.5,20.99z M3,17.988h55v-4.612c0-3.347-3.131-6.397-6.568-6.397
			H9.111C5.741,6.979,3,9.849,3,13.376V17.988z"/>
		<path id="path-5_20_" d="M12.628,12.877c0,0.938-0.76,1.698-1.697,1.698c-0.938,0-1.698-0.76-1.698-1.698
			c0-0.939,0.76-1.699,1.698-1.699C11.868,11.178,12.628,11.938,12.628,12.877z"/>
		<path id="path-6_20_" d="M18.285,12.877c0,0.938-0.76,1.698-1.697,1.698c-0.938,0-1.697-0.76-1.697-1.698
			c0-0.939,0.759-1.699,1.697-1.699C17.525,11.178,18.285,11.938,18.285,12.877z"/>
		<path id="path-7_20_" d="M23.943,12.877c0,0.938-0.759,1.698-1.697,1.698c-0.937,0-1.697-0.76-1.697-1.698
			c0-0.939,0.76-1.699,1.697-1.699C23.184,11.178,23.943,11.938,23.943,12.877z"/>
		<path id="path-8_19_" d="M21.886,41.838V40.42h-3.824c-0.481,0-0.843-0.109-1.084-0.328c-0.242-0.218-0.362-0.515-0.362-0.891
			c0-0.097,0.018-0.195,0.054-0.293c0.035-0.1,0.088-0.204,0.159-0.313c0.071-0.11,0.145-0.215,0.221-0.317
			c0.076-0.101,0.17-0.225,0.282-0.373l4.035-5.403c0.265-0.355,0.482-0.613,0.652-0.773c0.169-0.16,0.374-0.24,0.613-0.24
			c0.771,0,1.157,0.442,1.157,1.326v5.898h0.327c0.391,0,0.705,0.053,0.941,0.161c0.236,0.106,0.354,0.34,0.354,0.7
			c0,0.294-0.097,0.509-0.289,0.644c-0.193,0.135-0.482,0.202-0.868,0.202h-0.465v1.418c0,0.391-0.086,0.682-0.259,0.872
			c-0.173,0.19-0.403,0.286-0.693,0.286c-0.284,0-0.514-0.098-0.689-0.293C21.973,42.507,21.886,42.219,21.886,41.838z
			 M18.611,38.713h3.275v-4.427L18.611,38.713z"/>
		<path id="path-9_19_" d="M34.222,37.326c0,0.833-0.051,1.549-0.153,2.15c-0.101,0.599-0.289,1.142-0.563,1.63
			c-0.346,0.6-0.792,1.062-1.34,1.387c-0.549,0.325-1.157,0.487-1.828,0.487c-0.772,0-1.463-0.218-2.074-0.655
			c-0.613-0.436-1.074-1.041-1.383-1.813c-0.157-0.422-0.273-0.888-0.346-1.399c-0.074-0.51-0.11-1.063-0.11-1.658
			c0-0.767,0.04-1.458,0.121-2.073c0.081-0.613,0.208-1.142,0.381-1.584c0.3-0.732,0.735-1.289,1.305-1.673
			c0.572-0.383,1.253-0.576,2.045-0.576c0.523,0,0.997,0.086,1.424,0.256c0.427,0.171,0.801,0.419,1.123,0.747
			c0.322,0.328,0.596,0.733,0.819,1.215C34.028,34.605,34.222,35.792,34.222,37.326z M32.136,37.174c0-0.93-0.057-1.691-0.168-2.282
			c-0.112-0.592-0.3-1.039-0.564-1.342c-0.263-0.302-0.63-0.453-1.096-0.453c-0.67,0-1.136,0.338-1.398,1.013
			c-0.261,0.676-0.391,1.717-0.391,3.125c0,0.955,0.055,1.737,0.167,2.347c0.112,0.61,0.299,1.07,0.563,1.383
			c0.265,0.313,0.622,0.468,1.074,0.468c0.467,0,0.832-0.162,1.097-0.488c0.264-0.324,0.449-0.789,0.556-1.393
			C32.082,38.947,32.136,38.154,32.136,37.174z"/>
		<path id="path-10_10_" d="M40.42,41.838V40.42h-3.823c-0.482,0-0.844-0.109-1.085-0.328c-0.241-0.218-0.362-0.515-0.362-0.891
			c0-0.097,0.018-0.195,0.054-0.293c0.035-0.1,0.088-0.204,0.159-0.313c0.072-0.11,0.145-0.215,0.221-0.317
			c0.076-0.101,0.17-0.225,0.282-0.373l4.035-5.403c0.265-0.355,0.482-0.613,0.652-0.773c0.17-0.16,0.374-0.24,0.613-0.24
			c0.771,0,1.157,0.442,1.157,1.326v5.898h0.327c0.391,0,0.705,0.053,0.941,0.161c0.236,0.106,0.354,0.34,0.354,0.7
			c0,0.294-0.096,0.509-0.289,0.644c-0.193,0.135-0.482,0.202-0.868,0.202h-0.465v1.418c0,0.391-0.086,0.682-0.259,0.872
			c-0.172,0.19-0.403,0.286-0.693,0.286c-0.284,0-0.514-0.098-0.688-0.293C40.507,42.507,40.42,42.219,40.42,41.838z M37.145,38.713
			h3.275v-4.427L37.145,38.713z"/>
	</g>
</g>
<g>
</g>
<g>
</g>
<g>
</g>
<g>
</g>
<g>
</g>
<g>
</g>
<g>
</g>
<g>
</g>
<g>
</g>
<g>
</g>
<g>
</g>
<g>
</g>
<g>
</g>
<g>
</g>
<g>
</g>
</svg>
