<?xml version="1.0" encoding="utf-8"?>
<!-- Generator: Adobe Illustrator 25.4.1, SVG Export Plug-In . SVG Version: 6.00 Build 0)  -->
<svg version="1.1" id="Слой_1" xmlns="http://www.w3.org/2000/svg" xmlns:xlink="http://www.w3.org/1999/xlink" x="0px" y="0px"
	 viewBox="0 0 3413.6 2372.3" style="enable-background:new 0 0 3413.6 2372.3;" xml:space="preserve">
<style type="text/css">
	.st0{fill:#9A3B82;}
	.st1{fill:#FFCF2D;}
	.st2{fill:#FFFFFF;stroke:#FFCF2D;stroke-width:5;stroke-miterlimit:10;}
	.st3{fill:none;stroke:#FFCF2D;stroke-width:5;stroke-miterlimit:10;}
	.st4{fill:#66B0F0;stroke:#FFCF2D;stroke-width:5;stroke-miterlimit:10;}
	.st5{fill:#FE5244;}
	.st6{fill:#A0505A;}
	.st7{fill:#73325A;}
	.st8{fill:none;stroke:#73325A;stroke-width:5;stroke-miterlimit:10;}
	.st9{fill:none;stroke:#FFCF2D;stroke-width:6;stroke-miterlimit:10;}
	.st10{fill:#FFFFFF;}
	.st11{fill:none;stroke:#9A3B82;stroke-width:6;stroke-miterlimit:10;}
	.st12{fill:#66B0F0;}
	.st13{fill:#3FB1B5;}
	.st14{fill:none;stroke:#66B0F0;stroke-width:6;stroke-miterlimit:10;}
	.st15{fill:none;stroke:#FE5244;stroke-width:6;stroke-linecap:round;stroke-miterlimit:10;}
	.st16{fill:none;stroke:#FE5244;stroke-width:6;stroke-miterlimit:10;}
	.st17{fill:none;stroke:#FFFFFF;stroke-width:5;stroke-linecap:round;stroke-miterlimit:10;}
	.st18{fill:#E57281;}
	.st19{fill:none;stroke:#9A3B82;stroke-width:5;stroke-linecap:round;stroke-miterlimit:10;}
	.st20{fill:#66B0F0;stroke:#FFFFFF;stroke-width:6;stroke-miterlimit:10;}
	.st21{fill:#66B0F0;stroke:#FFCF2D;stroke-width:4.9999;stroke-miterlimit:9.9997;}
	.st22{fill:#FFFFFF;stroke:#FE5244;stroke-width:5;stroke-miterlimit:10;}
	.st23{fill:none;stroke:#73325A;stroke-width:5;stroke-linecap:round;stroke-miterlimit:10;}
</style>
<g id="_x35__HAND__x26__CAP">
	<g id="HAND_8_">
		<g id="DRESS_6_">
			<path class="st0" d="M3249.7,2042.4v329.9h-496.3l96.7-506.6c-3.1,20,58.8,57.5,143.5,95.1c30.4,13.5,64.3,26.9,100.5,39.6
				C3152.5,2021,3206.3,2035,3249.7,2042.4C3249.6,2042.4,3249.7,2042.4,3249.7,2042.4z"/>
			<path class="st1" d="M3249.7,1943.2v88.3c-43.4-7.4-97.1-21.3-155.7-41.9c-138.1-48.5-244.4-108.4-238.4-135.3
				c0.1-0.4,0.2-0.8,0.3-1.1c9.3-26.3,131.6-8.1,271.6,41c45,15.8,85.6,32.1,119.7,47.8C3248,1942.4,3248.8,1942.8,3249.7,1943.2z"
				/>
		</g>
		<g id="DIPLOMA_1_">
			<path class="st2" d="M3181.6,1178.8c-48.4,0-87.6,39.2-87.6,87.5v239.8c0,48.3-39.2,87.5-87.5,87.5h-350.8
				c48.4,0,87.5-39.2,87.5-87.5v-239.8c0-48.4,39.2-87.5,87.5-87.5L3181.6,1178.8L3181.6,1178.8z"/>
			<g>
				<rect x="2804.8" y="1302.9" class="st2" width="223.4" height="207.3"/>
				<line class="st3" x1="3028.1" y1="1332.5" x2="2804.8" y2="1332.5"/>
				<line class="st3" x1="3028.1" y1="1362.1" x2="2804.8" y2="1362.1"/>
				<line class="st3" x1="3028.1" y1="1391.8" x2="2804.8" y2="1391.8"/>
				<line class="st3" x1="3028.1" y1="1421.4" x2="2804.8" y2="1421.4"/>
				<line class="st3" x1="3028.1" y1="1451.1" x2="2804.8" y2="1451.1"/>
				<line class="st3" x1="3028.1" y1="1480.7" x2="2804.8" y2="1480.7"/>
			</g>
			<path class="st4" d="M3094,1266.3c0-48.1,38.8-87.1,86.7-87.5c48,0.4,86.7,39.4,86.7,87.5H3094z"/>
			<path class="st1" d="M3006.9,1595.8c-0.1,0-0.3,0-0.4,0H2657c-0.2,0-0.4,0-0.6,0c-35.9-0.5-66.6-22.7-79.6-54.1H2927
				C2940.1,1573.1,2970.8,1595.3,3006.9,1595.8z"/>
			<g>
				<g>
					<path class="st5" d="M2819.4,1279.1H2779v-32.4h19v18c0,0.4,0.2,0.7,0.4,0.8l0.1,0.1L2819.4,1279.1z"/>
				</g>
				<g>
					<path class="st5" d="M2835.1,1257.9v4.3c0,0.8-0.1,1.6-0.1,2.4c0,0.2-0.1,0.5-0.1,0.7c-0.1,0.4-0.1,0.8-0.2,1.2
						c-1.1,5.5-4.4,10-8.5,11.7c-0.3,0.1-0.6,0.2-0.9,0.3c-0.5,0.2-1.1,0.3-1.6,0.4c-0.2,0-0.4,0.1-0.6,0.1l-22.9-14.9
						c0.2-3.5,2.4-6.3,5-6.3h29.9V1257.9z"/>
				</g>
				<g>
					<path class="st5" d="M3058.2,1246.7v32.4h-40.4l20.8-13.5l0.1-0.1l0,0c0.1-0.1,0.1-0.1,0.2-0.1c0-0.1,0.1-0.1,0.1-0.2
						c0,0,0-0.1,0.1-0.1c0-0.1,0-0.1,0.1-0.1l0,0c0,0,0,0,0-0.1s0-0.1,0-0.2v-18L3058.2,1246.7L3058.2,1246.7z"/>
				</g>
				<g>
					<path class="st5" d="M3037.2,1264.2l-22.9,14.9c-0.6-0.1-1.2-0.2-1.8-0.3c-0.2-0.1-0.4-0.1-0.6-0.2c-0.3-0.1-0.5-0.2-0.8-0.3
						c-0.2-0.1-0.5-0.2-0.7-0.3c-3.1-1.7-5.7-5-7-9.1c-0.2-0.6-0.4-1.2-0.5-1.8c-0.1-0.2-0.1-0.5-0.2-0.8c-0.2-1.3-0.4-2.6-0.4-4
						v-4.3h30C3034.8,1257.9,3037,1260.7,3037.2,1264.2z"/>
				</g>
				<g>
					<path class="st5" d="M3037.2,1230.3v28.2c-0.2-0.2-0.4-0.5-0.6-0.7c-0.4-0.4-0.8-0.7-1.2-1c-1-0.6-2.1-1-3.2-1h-227.1
						c-1.2,0-2.3,0.4-3.2,1c-0.4,0.3-0.8,0.6-1.2,1c-0.2,0.2-0.4,0.4-0.6,0.7v-28.2c0-3.8,2.2-6.8,5-6.8h227.1
						C3034.9,1223.5,3037.2,1226.6,3037.2,1230.3z"/>
				</g>
			</g>
		</g>
		<g id="HAND_9_">
			<path class="st6" d="M3249.7,1639.5v392h-0.1c-43.4-7.4-97.1-21.3-155.7-41.9c-36.2-12.7-70.1-26.2-100.5-39.6l16.3-91
				l27.7-154.5c-86.9-27.2-101-110.8-101-110.8h69.9c48.4,0,87.5-39.2,87.5-87.5v-28.8h-44.9c-31.5,0-57.1-31-57.1-62.5v-10.2h99.8
				c18.5,0,35.9,8.7,47,23.5l73,97.5C3236.4,1558.5,3249.7,1598.4,3249.7,1639.5z"/>
			<path class="st7" d="M3249.7,1943.2v88.3h-0.1c-43.4-7.4-97.1-21.3-155.7-41.9c-36.2-12.7-70.1-26.2-100.5-39.6l16.3-91
				c36,8.8,76,20.7,117.6,35.3c45,15.8,85.6,32.1,119.6,47.8C3248,1942.4,3248.8,1942.8,3249.7,1943.2z"/>
			<path class="st6" d="M3098.4,1477.4h-48.2c-31.5,0-57.1-31-57.1-62.5v-10.2h105.3V1477.4z"/>
			<path class="st8" d="M3068.1,1574.8c0,0,69.5,26.1,75.8,115.8"/>
			<line class="st8" x1="3037.6" y1="1706.6" x2="3084.9" y2="1706.6"/>
		</g>
	</g>
	<g id="CAP_6_">
		<path class="st9" d="M2993.5,585.4l31.7-21c41.3-27.3,96.6-0.3,100.5,49l6.9,87.3c3.8,47.9,56.5,75.2,97.8,50.7l20-11.9"/>
		<polygon class="st0" points="2532.8,261.1 2940.1,497.5 3145.2,958 2909.9,799.5 2654.2,499.9 		"/>
		<polyline class="st9" points="2533.9,245.2 2949.8,486.7 3159.3,956.9 		"/>
		
			<ellipse transform="matrix(0.7641 -0.6451 0.6451 0.7641 231.8089 1945.2308)" class="st10" cx="2775.6" cy="655.7" rx="45.1" ry="201.5"/>
		
			<ellipse transform="matrix(0.7641 -0.6451 0.6451 0.7641 224.5809 1941.2549)" class="st2" cx="2766.6" cy="663.6" rx="44.2" ry="197.6"/>
		<path class="st1" d="M2943.7,777.3l-38.8,32.7c7.2-6.1,5.6-21.5-3.1-43c-14.3-35.4-47.8-87.1-92.4-140.1
			c-44.7-52.9-90.1-94.6-122.6-114.6c-19.7-12.2-34.7-16.4-41.9-10.3l38.8-32.7c19-16.1,96,36.5,167.8,121.6
			S2962.8,761.3,2943.7,777.3z"/>
		<path class="st1" d="M3358.2,652.2c11-5.3,21.7-10,32-13.9c6.1,6.4,11.4,13.9,15.5,22.3s6.7,17.2,7.9,25.9
			c-9.5,5.6-19.8,11.2-30.7,16.5c-54.7,26.5-104.5,36.6-111.3,22.6C3264.7,711.5,3303.5,678.7,3358.2,652.2z"/>
		<circle class="st11" cx="3261.6" cy="732.5" r="12.1"/>
	</g>
</g>
<g id="_x34__HAND__x26__CAP">
	<g id="DRESS_5_">
		<path class="st12" d="M2547.5,1948.9v423.4h-482.3l61.8-459.8c0,18.6,94.1,41.8,210.2,51.8
			C2453.3,1974.4,2547.5,1967.5,2547.5,1948.9z"/>
		<path class="st13" d="M2545.3,1938c0,18.6-93.3,25.5-208.3,15.4s-208.3-33.3-208.3-51.8l0,0c0-18.6,93.3-25.5,208.3-15.4
			C2452.1,1896.2,2545.3,1919.4,2545.3,1938z"/>
	</g>
	<g id="CAP_5_">
		<path class="st14" d="M2612.2,999.4l29.2,18.9c29.2,22.6-11.2,123.6-90.2,225.4c-79,101.9-166.7,166.1-195.9,143.5l-14.4-13.6"/>
		<polygon class="st12" points="2206.7,1473.8 2538.2,1170.4 2654.1,817.5 2300.3,1139 		"/>
		<polyline class="st15" points="2189.8,1510.6 2550.6,1180.4 2668.3,821.9 		"/>
		<path class="st16" d="M2380.6,1169.4l-314.8,301.1c-15.3,14.6-40.3,0.8-36-20l8.8-42.7c4-19.3-17.9-33.4-33.8-21.8l-104,75.7"/>
		<path class="st1" d="M1816.1,1569.5c-9.3,7.8-18.6,15-27.6,21.3c-7.5-4.7-14.4-10.6-20.5-17.8c-6-7.2-10.7-15-14-23.2
			c7.8-7.8,16.4-15.7,25.7-23.6c46.5-39.1,92.3-61.2,102.4-49.2C1892.1,1489,1862.6,1530.4,1816.1,1569.5z"/>
		<circle class="st16" cx="1891.1" cy="1469" r="12.1"/>
	</g>
	<g id="HAND_7_">
		<path class="st1" d="M2395.5,1630.2v327c-18.5-0.8-38.2-2-58.5-3.8c-74.9-6.5-140.5-18.7-177.2-31.5l5.5-36.2l18.4-121.5h-23.8
			c-33.9,0-61.3-27.4-61.3-61.3v-120.4c0-23.8,8.6-46.7,24.3-64.6l78.3-89.5c5.1-5.8,14.7-2.2,14.7,5.5v121.7
			c0,14.6-5.2,28.7-14.7,39.8l-7,8.2h85c12.3,0,19.5-13.7,12.6-23.9c-10.5-15.3-24.3-37.1-37.4-62.3c-26.1-49.9,19.2-77.8,19.2-77.8
			l103.7,134.5C2389.1,1590.4,2395.5,1610.1,2395.5,1630.2z"/>
		<path class="st17" d="M2215.9,1427.4v128.2c0,14.6-5.2,28.7-14.7,39.8l-7,8.2"/>
		<g>
			<line class="st17" x1="2194.2" y1="1603.5" x2="2138" y2="1666.6"/>
			<path class="st17" d="M2215.9,1499.9c0,14.6-5.2,28.7-14.7,39.8l-7,8.2l-56.1,63"/>
			<path class="st17" d="M2215.9,1444.3c0,14.6-5.2,28.7-14.7,39.8l-7,8.2l-56.1,63"/>
			<line class="st17" x1="2183.7" y1="1767.5" x2="2226.8" y2="1767.5"/>
		</g>
		<path class="st5" d="M2395.5,1892.6v64.6c-18.5-0.8-38.2-2-58.5-3.8c-74.9-6.5-140.5-18.7-177.2-31.5l5.5-36.2
			c37.6-5.5,100.5-5.8,171.8,0.4C2357.3,1888,2376.9,1890.1,2395.5,1892.6z"/>
	</g>
</g>
<g id="_x33__HAND__x26__CAP">
	<g id="HAND_4_">
		<g id="DRESS_4_">
			<path class="st13" d="M1911.5,2372.3h-557.7v-552.9c0,23.6,91.7,42.7,204.9,42.7s204.9-19.1,204.9-42.7v-0.1L1911.5,2372.3z"/>
			<path class="st12" d="M1762.1,1808.4L1762.1,1808.4c0,23.7-90.7,42.8-202.7,42.8s-202.7-19.1-202.7-42.7v-0.1
				c0.3-23.5,90.9-42.6,202.7-42.6S1761.9,1784.9,1762.1,1808.4z"/>
		</g>
		<g id="HAND_6_">
			<path id="HAND_5_" class="st18" d="M1762.1,1808.8c-0.7,23.4-91.2,42.4-202.7,42.4c-21.5,0-42.1-0.7-61.5-2v-205.7h-105.8
				c-13.5,0-24.4-10.9-24.4-24.4v-16.5c0-7.4,3.3-14,8.5-18.5c-5.2-4.5-8.5-11.1-8.5-18.5v-16.5c0-6.5,2.6-12.5,6.8-16.8
				c-4.2-4.4-6.8-10.3-6.8-16.8V1499c0-6.7,2.7-12.8,7.1-17.3c-4.4-4.4-7.1-10.5-7.1-17.2v-29.9c0-13.5,10.9-24.4,24.4-24.4h135.1
				c4.5-2.6,11.8-11.8-0.6-17.2l-29-6.8c-23-11.5-37.6-30.6-37.6-56.4h102c17.1,0,32.4,10.8,38.2,26.9l159.4,445L1762.1,1808.8z"/>
			<path class="st0" d="M1762.6,1809c-0.3-0.3-0.5-0.5-0.5-0.5c0,23.6-90.7,42.7-202.7,42.7c-21.5,0-42.1-0.7-61.5-2v-81.3
				c19.4-1.3,40.1-2,61.5-2c101,0,184.8,15.6,200.2,35.9l0,0C1760,1802.3,1761.1,1805,1762.6,1809z"/>
		</g>
		<g id="WINEGLASS">
			<path class="st10" d="M1529.5,1132.2v81.1c0,44.1-35.7,79.8-79.8,79.8s-79.8-35.7-79.8-79.8v-81.1c0,19.8,35.7,35.8,79.8,35.8
				C1493.8,1168,1529.5,1152,1529.5,1132.2z"/>
			<ellipse class="st1" cx="1449.7" cy="1132.2" rx="79.8" ry="35.8"/>
			<path class="st9" d="M1529.5,993.6v219.6c0,29.6-16.1,55.4-40,69.2c0,0,0,0-0.1,0c-11.7,6.7-25.3,10.6-39.7,10.6
				s-27.9-3.8-39.6-10.5c-0.1,0-0.1-0.1-0.2-0.1c-23.9-13.8-40-39.6-40-69.2V993.6H1529.5z"/>
			<ellipse class="st2" cx="1449.7" cy="993.6" rx="80.7" ry="35.8"/>
			<circle class="st1" cx="1449.7" cy="987.2" r="11.8"/>
			<circle class="st2" cx="1423.7" cy="1229.6" r="10.4"/>
			<circle class="st10" cx="1486.1" cy="1132.2" r="8.6"/>
			<circle class="st1" cx="1402.9" cy="1196.7" r="8.6"/>
			<path class="st2" d="M1526.4,1699.5H1373c-2.8,0-3.6-3.7-1.2-5l53.6-20.3c8.4-3.2,14-11.3,14-20.3v-319.6
				c0-21.2-11-41.1-29.3-51.8c11.7,6.7,25.2,10.5,39.6,10.5c14.5,0,28-3.9,39.7-10.6c-18.4,10.6-29.4,30.6-29.4,51.8v319.6
				c0,9,5.6,17.1,14,20.3l53.6,20.3C1530,1695.8,1529.2,1699.5,1526.4,1699.5z"/>
			<circle class="st1" cx="1392.9" cy="859.9" r="13.6"/>
			<circle class="st2" cx="1486.1" cy="883.6" r="11.8"/>
			<circle class="st2" cx="1428.3" cy="932.8" r="8.6"/>
			<circle class="st1" cx="1423.8" cy="829.6" r="7.1"/>
		</g>
		<g id="FINGERS_1_">
			<path class="st18" d="M1552.5,1442.3v201.3h-160.4c-13.5,0-24.4-10.9-24.4-24.4v-16.5c0-7.4,3.3-14,8.5-18.5
				c-5.2-4.5-8.5-11.1-8.5-18.5v-16.5c0-6.5,2.6-12.5,6.8-16.8c-4.2-4.4-6.8-10.3-6.8-16.8v-16.5c0-6.7,2.7-12.8,7.1-17.3
				c-4.4-4.4-7.1-10.5-7.1-17.2v-22.2L1552.5,1442.3L1552.5,1442.3z"/>
			<g>
				<path class="st19" d="M1370.5,1564.3c0,15.3,12.4,27.7,27.7,27.7H1528c15.3,0,27.7-12.4,27.7-27.7"/>
				<path class="st19" d="M1370.5,1514.4c0,15.3,12.4,27.7,27.7,27.7H1528c15.3,0,27.7-12.4,27.7-27.7"/>
				<path class="st19" d="M1370.5,1464.5c0,15.3,12.4,27.7,27.7,27.7H1528c15.3,0,27.7-12.4,27.7-27.7"/>
				<path class="st19" d="M1396.9,1641.9H1528c15.3,0,27.7-12.4,27.7-27.7v-187.1"/>
				<path class="st19" d="M1433.1,1426.3h-13.3c-4.4,0-8,3.6-8,8l0,0c0,4.4,3.6,8,8,8h74.4c8,0,14.6-6.5,14.6-14.6l0,0
					c0-9.6,7.8-17.4,17.4-17.4h12.1c9.6,0,17.4,7.8,17.4,17.4v32.4"/>
			</g>
		</g>
	</g>
	<g id="CAP_4_">
		<polygon class="st13" points="2341.1,395.7 2008.2,737.1 1624.4,314 2043.3,19.2 		"/>
		<polyline class="st9" points="1995.2,753.5 1592.5,312.1 2034.1,2.5 		"/>
		<path class="st9" d="M2001.7,378.1l25.1-3.7c41.3-6.1,79.6,22.5,85.7,63.7l21.9,149.2c7.4,50.3,61.4,79.1,107.3,57.1l104.7-50.1"
			/>
		<path class="st1" d="M2479.9,622.9c10.7,5.8,20.8,11.8,30,17.8c-1.6,8.7-4.6,17.3-9,25.6c-4.4,8.2-10,15.5-16.4,21.6
			c-10.1-4.4-20.7-9.5-31.4-15.3c-53.5-28.9-90.8-63.4-83.4-77.1C2377.1,581.8,2426.4,594,2479.9,622.9z"/>
		<circle class="st14" cx="2358.3" cy="591.5" r="12.1"/>
	</g>
</g>
<g id="_x32__HAND__x26__CAP">
	<g id="HAND_2_">
		<g id="DRESS_3_">
			<path class="st5" d="M1168.5,1997.7v374.6H735.6v-220.7c9.4,24.6,119.6,8.9,237.2-36.1C1078.6,2075,1160.3,2025.2,1168.5,1997.7z
				"/>
			<path class="st12" d="M1168.5,1986.8c-8.3,27.5-89.9,77.3-195.8,117.8c-117.5,45-227.7,60.7-237.2,36.1s85.5-80.3,203.1-125.3
				c117.5-45,220.5-61.5,229.9-36.9C1169.5,1981,1169.5,1983.8,1168.5,1986.8z"/>
		</g>
		<g id="HAND_3_">
			<path class="st2" d="M1076.8,1738.4v317.4l0,0l-23.9,12.1c-24.2,11.8-51.3,23.5-80.1,34.5c-52.9,20.3-104.4,34.6-145.8,42
				l23.8-93.5l38.8-152.6c-18.4,0-35.8-8.2-47.5-22.4l-159.3-181.2c27.3-24.9,68.1,9,68.1,9l-15.3-78.1
				c-3.6-18.5,1.8-37.7,14.5-51.6l48.4-53.1c9.6-10.5,26.9-6.4,30.9,7.2l34.4,118.7c0,0,85.4,65.2,101.4,65.2
				c18.1,0,24.4-14.7-9.4-63c-25.4-36.3,0-62.8,0-62.8l82.7,69.6C1062.8,1676.4,1076.8,1706.6,1076.8,1738.4z"/>
			<g>
				<path class="st3" d="M894.5,1719.9l-60.5-48.4l-33.1-114.2c-3.8-13.1-19.9-17-29.1-6.9"/>
				<path class="st3" d="M854.9,1741.2l-52.6-42.8L771,1590.3c-3.6-12.4-19.4-16.1-28.1-6.5"/>
				<line class="st3" x1="808.4" y1="1752.1" x2="750.8" y2="1703.8"/>
				<line class="st3" x1="889.6" y1="1898.3" x2="956.9" y2="1898.3"/>
			</g>
			<path class="st1" d="M1076.8,1974v83.9c-29.8,15.8-65.3,31.8-104,46.7c-53,20.3-104.5,34.6-146,42l24-93.6
				c26.6-12.8,56.4-25.6,87.9-37.6C989.6,1996,1037.8,1981.8,1076.8,1974z"/>
		</g>
	</g>
	<g id="CAP_3_">
		<path class="st9" d="M1009,917.4l30.4,66.7c2.9,24.7-14.7,47-39.4,50l0,0c-24.7,2.9-42.3,25.3-39.4,50l4.4,37"/>
		<polygon class="st5" points="1360.8,703.1 1521,453.1 970,448.7 789.5,929.3 1087.5,915.3 		"/>
		<polyline class="st9" points="1527.6,434.3 951.5,427.8 760.2,932.2 		"/>
		<path class="st20" d="M1350.9,665.6c32,54.9-22.4,146.3-121.6,204.1c-99.2,57.8-205.5,60.1-237.5,5.2c-4.4-7.5-7.1-15.6-8.4-24.3
			c-8-54.9,44.3-129.9,130-179.8s176.7-58.5,220.5-24.5C1340.8,651.7,1346.5,658.1,1350.9,665.6z"/>
		<path class="st17" d="M1325.5,622l25.4,43.6c-4.4-7.5-10.1-13.9-17-19.3c-43.8-34-134.8-25.4-220.5,24.5s-137.9,124.9-130,179.8
			c1.2,8.7,4,16.8,8.4,24.3l-25.4-43.6c-32-54.9,22.4-146.3,121.6-204.1C1187.1,569.5,1293.5,567.1,1325.5,622z"/>
		<path class="st1" d="M956.4,1255.9c-3.9,11.5-8.1,22.5-12.5,32.6c-8.9-0.1-17.9-1.6-26.7-4.6c-8.9-3-16.9-7.2-24.1-12.5
			c2.6-10.7,5.8-22,9.7-33.5c19.4-57.6,47-100.2,61.8-95.3C979.4,1147.6,975.7,1198.3,956.4,1255.9z"/>
		<circle class="st14" cx="966.6" cy="1130.7" r="12.1"/>
	</g>
</g>
<g id="_x31__HAND__x26__CAP">
	<g id="HAND">
		<g id="DRESS_2_">
			<path class="st12" d="M450.3,1963v409.3H0.7v-602.4c8.8,29.5,102.9,91,219.7,142.4C344.7,1967.2,447.7,1989.8,450.3,1963z"/>
			<path class="st0" d="M450.3,1952.1c-2.7,26.8-105.6,4.1-229.9-50.7C103.6,1849.9,9.5,1788.4,0.7,1759c-0.6-1.9-0.8-3.7-0.6-5.3
				c2.6-26.8,105.6-4.1,229.9,50.7S453,1925.3,450.3,1952.1z"/>
		</g>
		<g id="HAND_1_">
			<path class="st6" d="M184.2,1365c10.7-22,33-36,57.5-36h70.7l3.7,284.2l49.3,261.2l15.7,83c-41.6-9.2-98.4-28.5-160.6-55.9
				c-35.2-15.5-79.3-38.5-108.7-54.7V1501c0-4.7,0.9-9.4,2.5-13.8L184.2,1365z"/>
			<path class="st7" d="M381,1957.4L381,1957.4c-41.6-9.2-98.4-28.5-160.6-55.9c-35.2-15.5-79.3-38.5-108.7-54.7v-86.9
				c32.1,10.3,79.6,27.5,118.3,44.5c52.2,23,97.8,46.7,135.4,70L381,1957.4z"/>
		</g>
		<g id="DIPLOMA">
			<g>
				<path class="st2" d="M644.3,1009.5l-376.1,692c-13.9,25.6-52.2,31.7-85.5,13.6s-49-53.5-35.1-79.2l376.1-692L644.3,1009.5z"/>
				
					<ellipse transform="matrix(0.4775 -0.8786 0.8786 0.4775 -553.204 1023.4584)" class="st21" cx="583.9" cy="976.9" rx="52.8" ry="68.6"/>
			</g>
			<path class="st5" d="M398.6,1274.4l177.7-145.1l-2.8,51.6l56.9,14.2l-129.6,80c34.8-6,76.7-10.9,111.2-8.2
				c41.1,3.2,27.3,51.3,11.9,92.4c36-3.5,156.7-76.6,202.2-62.8c27.8,8.4,17.8,65.1,9.8,96.4c11.6,0.6,70.3-0.1,70.3-0.1l-31,28.3
				l17,28.3c-66,2.9-66.8-7.5-58.5-54.3c1.4-50.9-55-2-175.1,26.7c-59.5,14.2-51.8-24.5-37.1-64.8c-5.9-18.5-50-38.6-191.7-1.6
				L398.6,1274.4z"/>
			<circle class="st22" cx="401.2" cy="1310.3" r="52.5"/>
		</g>
		<g id="FINGERS">
			<path class="st6" d="M383.1,1329v3.3c0,33.6-27.2,60.9-60.9,60.9h-63.9V1329L383.1,1329L383.1,1329z"/>
			<g>
				<path class="st6" d="M460.9,1452.3l-16.9,39.6l-19.7,46.3l-10.7,25.1l-16.3,38.3c-0.4,1-1,2.1-1.5,3c0,0.1-0.1,0.1-0.1,0.2
					c-5.2,9-15.3,14.6-26.4,14.6H239.8c-15.7,0-26.4-14.9-20.6-28.6l9.4-22.1l20.7-48.6l17.8-41.9l15.7-36.8
					c4.6-10.8,15.7-17.9,28.1-17.9h129.5C456,1423.7,466.7,1438.6,460.9,1452.3z"/>
				<g>
					<path class="st23" d="M272.5,1478.4c5.4-6,13.2-9.6,21.6-9.6h123.7c13,0,22.4,11.2,21.1,23.1"/>
					<path class="st23" d="M255.7,1520.3c5.3-5.3,12.6-8.4,20.5-8.4h123.7c14.2,0,24,13.2,20.4,26.2"/>
					<path class="st23" d="M236.3,1568.8c5.3-5,12.4-7.9,20-7.9H380c14.6,0,24.7,14.2,20,27.6l0,0"/>
				</g>
			</g>
		</g>
	</g>
	<g id="CAP_2_">
		<path class="st1" d="M683.6,289.2c8.3-8.9,16.6-17.2,24.8-24.6c8,3.7,15.6,8.8,22.5,15.2c6.8,6.4,12.5,13.6,16.8,21.3
			c-6.8,8.7-14.4,17.6-22.7,26.5c-41.4,44.5-84.1,72-95.6,61.4C618,378.4,642.2,333.7,683.6,289.2z"/>
		<path class="st12" d="M393,641.6l-13.2,8.2c-47.9,29.7-141.2-34.2-208.3-142.7c-67.2-108.5-82.8-220.4-35-250.1l13.6-8.4l80.9,238
			L393,641.6z"/>
		<polygon class="st20" points="527,769.9 393,641.6 230.9,486.5 150,248.6 77.7,35.9 414.4,307.2 		"/>
		<polyline class="st11" points="537.5,757.2 425.7,295.3 84.8,26.8 		"/>
		<path class="st9" d="M349.1,442.8c-8.6-35.6,13.3-71.5,48.9-80.1l0,0c33.8-8.2,68.1,11.1,78.7,44.1l28.1,90.7
			c15.5,50.2,87.8,46.3,97.9-5.3l16.2-83.3"/>
		<circle class="st14" cx="622.7" cy="399.1" r="12.1"/>
	</g>
</g>
</svg>
