<svg width="1080" height="1080" xmlns="http://www.w3.org/2000/svg" data-name="Layer 1">
 <g id="Layer_1">
  <title>Layer 1</title>
  <g>
   <path fill="#f2f2f2" transform="translate(-276.182 -133.913)" d="m903.50689,499.99592l-174.50977,0a15.01828,15.01828 0 0 0 -15,15l0,387.85l-2,0.61005l-42.81006,13.11a8.00676,8.00676 0 0 1 -9.98974,-5.31l-127.34033,-415.95005a8.00313,8.00313 0 0 1 5.31006,-9.99l65.97022,-20.2l191.25,-58.54l65.96972,-20.2a7.98927,7.98927 0 0 1 9.99024,5.3l32.5498,106.32l0.60986,2z"/>
   <path fill="#3f3d56" transform="translate(-276.182 -133.913)" d="m941.58699,497.99592l-39.23,-128.14a16.99368,16.99368 0 0 0 -21.23,-11.28l-92.75,28.39l-191.23973,58.55002l-92.75,28.4a17.0152,17.0152 0 0 0 -11.28028,21.23l134.08008,437.93a17.02661,17.02661 0 0 0 16.26026,12.03a16.78926,16.78926 0 0 0 4.96972,-0.75l63.58008,-19.46l2,-0.62l0,-2.09l-2,0.61l-64.16992,19.65a15.01489,15.01489 0 0 1 -18.73,-9.95l-134.06983,-437.94a14.97935,14.97935 0 0 1 9.94971,-18.73l92.75,-28.4l191.24024,-58.54l92.75,-28.4a15.15551,15.15551 0 0 1 4.40966,-0.66a15.01461,15.01461 0 0 1 14.32032,10.61l39.0498,127.56l0.62012,2l2.08008,0l-0.61031,-2.00002z"/>
   <path fill="#145a7d" transform="translate(-276.182 -133.913)" d="m615.04178,485.6429a9.0157,9.0157 0 0 1 -8.61133,-6.3667l-12.88037,-42.07178a8.99884,8.99884 0 0 1 5.9712,-11.24023l175.939,-53.86377a9.00867,9.00867 0 0 1 11.24072,5.9707l12.88037,42.07227a9.01029,9.01029 0 0 1 -5.9707,11.24072l-175.93949,53.86377a8.976,8.976 0 0 1 -2.6294,0.39502z"/>
   <circle fill="#145a7d" r="20" cy="248.86366" cx="406.3325"/>
   <circle fill="#fff" r="12.66462" cy="248.86366" cx="406.3325"/>
   <path fill="#e6e6e6" transform="translate(-276.182 -133.913)" d="m1094.99735,939.99592l-338,0a8.50981,8.50981 0 0 1 -8.5,-8.5l0,-405a8.50951,8.50951 0 0 1 8.5,-8.5l338,0a8.50982,8.50982 0 0 1 8.5,8.5l0,405a8.51013,8.51013 0 0 1 -8.5,8.5z"/>
   <path fill="#3f3d56" transform="translate(-276.182 -133.913)" d="m939.49712,497.99592l-210.5,0a17.02411,17.02411 0 0 0 -17,17l0,407.8l2,-0.61l0,-407.19a15.01828,15.01828 0 0 1 15,-15l211.12012,0l-0.62012,-2zm183.5,0l-394,0a17.02411,17.02411 0 0 0 -17,17l0,458a17.0241,17.0241 0 0 0 17,17l394,0a17.0241,17.0241 0 0 0 17,-17l0,-458a17.02411,17.02411 0 0 0 -17,-17zm15,475a15.01828,15.01828 0 0 1 -15,15l-394,0a15.01828,15.01828 0 0 1 -15,-15l0,-458a15.01828,15.01828 0 0 1 15,-15l394,0a15.01828,15.01828 0 0 1 15,15l0,458z"/>
   <path fill="#145a7d" transform="translate(-276.182 -133.913)" d="m1017.99735,541.99592l-184,0a9.01015,9.01015 0 0 1 -9,-9l0,-44a9.01016,9.01016 0 0 1 9,-9l184,0a9.01016,9.01016 0 0 1 9,9l0,44a9.01015,9.01015 0 0 1 -9,9z"/>
   <circle fill="#145a7d" r="20" cy="329.08284" cx="649.81525"/>
   <circle fill="#fff" r="12.18187" cy="329.08284" cx="649.81525"/>
  </g>
  <text font-style="italic" transform="matrix(1.51812 0 0 1.53794 -331.15 -328.352)" stroke="#000" xml:space="preserve" text-anchor="start" font-family="'Brygada 1918'" font-size="24" id="svg_1" y="623" x="597" stroke-width="0" fill="#406c99">无内容 .......</text>
 </g>

</svg>