<svg xmlns:xlink="http://www.w3.org/1999/xlink" xmlns="http://www.w3.org/2000/svg" version="1.1" viewBox="0 0 1630 1024" height="1024px" width="1630px">
    <title>缺省页-无内容</title>
    <g fill-rule="evenodd" fill="none" stroke-width="1" stroke="none" id="页面-1">
        <g transform="translate(0.000000, -0.000000)" id="缺省页-无内容">
            <path fill-rule="nonzero" fill="#F0F1F9" id="bg" d="M160.096218,945.646023 C-58.5230801,945.76468 195.578079,608.176683 322.492467,569.926729 C432.181913,536.917951 434.814325,618.462797 568.415545,637.489655 C920.845476,687.620153 1085.9256,212.987119 1278.57409,287.352945 C1401.11241,334.866943 1475.64097,491.611624 1425.95526,667.563048 C1397.51506,767.963045 1317.69384,907.036301 1281.11095,945.646023 C1090.59154,945.579767 934.294298,945.579767 812.219218,945.646023 C593.59992,945.76468 378.715516,945.527367 160.096218,945.646023 Z"></path>
            <g transform="translate(181.357492, 74.491075)" id="内容">
                <path fill="#3681FD" stroke-width="9.30909091" stroke="#555555" id="路径-11" d="M349.516149,302.685314 L1116.34067,330.048865 C1130.08535,330.539334 1140.83001,342.0792 1140.33954,355.823877 C1140.29253,357.141224 1140.141,358.452758 1139.88637,359.746118 L1038.60599,874.195555 C1036.43256,885.235407 1026.2349,892.822929 1015.03609,891.732643 L349.516149,826.939415 L349.516149,826.939415 L349.516149,302.685314 Z"></path>
                <path transform="translate(1094.858577, 297.777020) rotate(-270.000000) translate(-1094.858577, -297.777020)" stroke-dasharray="43.72626953125,43.72626953125" opacity="0.200000003" stroke-width="8.99435846" stroke="#555555" id="路径-5" d="M974.961024,155.744169 C974.961024,155.744169 1028.26959,391.159601 1126.45034,337.434045 C1155.96974,321.280717 1171.42239,264.922852 1144.84365,247.003978 C1127.18322,235.097655 1120.1431,226.057644 1069.96651,232.85337 C1019.16074,239.734311 1020.21062,380.809501 1086.86982,407.981533 C1131.30928,426.096222 1173.93805,436.705668 1214.75613,439.809872"></path>
                <path fill="#FFFFFF" stroke-width="9.30909091" stroke="#555555" id="路径-10" d="M279.720616,126.766 L227.764697,689.717742 L227.764697,689.717742 L999.466424,887.780311 C1009.42616,890.336545 1019.57235,884.334824 1022.12858,874.375093 C1022.49326,872.954212 1022.68874,871.495212 1022.71094,870.028447 L1034.3758,99.5026154 C1034.58398,85.7507653 1023.60467,74.4339193 1009.85282,74.2257325 C1009.37498,74.2184986 1008.89704,74.225021 1008.41957,74.2452917 L303.461716,104.174232 C291.009678,104.702883 280.866006,114.355489 279.720616,126.766 Z"></path>
                <polygon points="237.205603 337.887504 366.415225 337.887504 432.210155 409.93719 874.158414 409.93719 988.334152 715.093731 300.304843 655.44673" fill="#3681FD" id="矩形备份-2"></polygon>
                <polygon points="1121.9728 149.842927 1211.94082 189.244449 1277.1298 133.527011 1237.93837 200.683905 1324.53312 225.546018 1373.63407 43.0647476" transform="translate(1247.803437, 134.305383) rotate(-354.000000) translate(-1247.803437, -134.305383)" fill="#3681FD" id="路径-4"></polygon>
                <path fill="#FFFFFF" stroke-width="9.30909091" stroke="#555555" id="路径-7" d="M142.305967,873.225655 L1007.82626,893.037517 C1019.89778,893.313836 1029.90767,883.751941 1030.18399,871.680428 C1030.21869,870.164443 1030.09558,868.648961 1029.81665,867.158455 L955.758972,471.424762 L955.758972,471.424762 L372.443058,469.555712 L236.495775,303.705394 L0,288.999697 L133.749553,866.263824 C134.676908,870.266296 138.198544,873.131635 142.305967,873.225655 Z"></path>
                <polygon points="158.544338 397.98644 309.662089 400.743904 369.659513 474.031322 760.560966 474.031322 860.952597 688.169931 246.836794 672.222252" fill="#EFF0F9" id="矩形备份-2"></polygon>
                <path fill-rule="nonzero" fill="#555555" id="路径-3备份" d="M540.875368,765.109339 C538.180972,767.883359 535.640544,771.15315 533.24579,774.913831 C529.62697,780.595585 527.659107,787.190965 527.566599,793.948407 C527.293801,813.875627 543.053129,830.253382 562.766043,830.529146 L565.275703,830.43248 C581.842709,828.83466 599.45698,810.206937 603.091704,794.94795 C611.263371,760.642357 566.820383,738.397605 540.875368,765.109339 Z M592.507127,792.275498 C589.880064,803.30037 575.652674,818.34111 564.502803,819.421743 L562.58325,819.493873 C549.233551,819.298304 538.307351,807.947288 538.496486,794.136225 C538.560623,789.45281 539.924975,784.881715 542.434162,780.943517 C544.456995,777.768001 546.553756,775.070194 548.715837,772.844994 C566.636795,754.400861 596.278233,768.470517 592.880332,790.379006 L592.507127,792.275498 Z"></path>
                <path fill-rule="nonzero" fill="#555555" id="路径-3备份-2" d="M718.885327,761.265167 C717.413748,761.212259 715.913345,761.221037 714.38459,761.291263 C705.062555,761.714815 696.205048,765.578383 689.495094,772.148979 C674.365722,786.96413 673.95844,811.317794 688.585702,826.544112 L690.521023,828.382474 C704.524657,840.41412 731.955475,841.053753 745.920993,832.787164 C777.349256,814.183878 758.2414,762.68015 718.885327,761.265167 Z M740.028455,822.60506 C730.128399,828.465185 708.092842,827.951359 698.321734,819.562283 L696.793714,818.109676 C686.858437,807.757162 687.140688,790.879791 697.625517,780.612721 C702.275593,776.059222 708.413948,773.381724 714.876232,773.088107 C716.095274,773.032109 717.279538,773.02518 718.431807,773.066608 C746.961263,774.092337 760.470319,810.504937 740.028455,822.60506 Z"></path>
                <path fill-rule="nonzero" fill="#555555" id="路径-3备份-3" d="M871.918721,772.300439 C870.447142,772.247531 868.946739,772.256309 867.417983,772.326535 C858.095949,772.750087 849.238442,776.613655 842.528487,783.184251 C827.399116,797.999402 826.991833,822.353066 841.619095,837.579384 L843.554416,839.417746 C857.558051,851.449392 884.988868,852.089025 898.954387,843.822436 C930.382649,825.21915 911.274794,773.715422 871.918721,772.300439 Z M893.061849,833.640332 C883.161793,839.500457 861.126235,838.986631 851.355128,830.597556 L849.827108,829.144948 C839.89183,818.792434 840.174082,801.915064 850.658911,791.647993 C855.308987,787.094494 861.447341,784.416997 867.909626,784.123379 C869.128667,784.067381 870.312932,784.060452 871.465201,784.10188 C899.994657,785.127609 913.503712,821.540209 893.061849,833.640332 Z"></path>
                <path transform="translate(156.296854, 146.705049) rotate(-56.000000) translate(-156.296854, -146.705049)" fill="#FF4848" id="形状结合" d="M261.485317,157.472985 L281.272143,207.7994 L211.519382,223.762638 C209.357718,216.761964 207.114018,211.440885 204.788283,207.7994 C202.462548,204.157916 198.335652,199.504332 192.407593,193.838647 L261.485317,157.472985 Z M160.703333,69.6474599 L225.75548,88.2765764 L176.992239,162.230104 L137.612042,141.364624 L160.703333,69.6474599 Z M67.6980906,83.4282637 L109.888645,142.834976 L97.1822072,145.63671 L80.5563794,153.707987 L31.3215659,107.570896 L67.6980906,83.4282637 Z"></path>
                <line stroke-width="9.30909091" stroke="#555555" id="路径-2" y2="471.473511" x2="996.741019" y1="471.473511" x1="929.863745"></line>
                <polygon points="831.403966 264.411016 832.130701 273.691694 388.864365 308.406076 388.13763 299.125399" fill-rule="nonzero" fill="#555555" id="路径-14"></polygon>
            </g>
        </g>
    </g>
</svg>